<?xml version="1.0" encoding="UTF-8" standalone="no"?>
<svg
   xmlns:dc="http://purl.org/dc/elements/1.1/"
   xmlns:cc="http://creativecommons.org/ns#"
   xmlns:rdf="http://www.w3.org/1999/02/22-rdf-syntax-ns#"
   xmlns:svg="http://www.w3.org/2000/svg"
   xmlns="http://www.w3.org/2000/svg"
   xmlns:sodipodi="http://sodipodi.sourceforge.net/DTD/sodipodi-0.dtd"
   xmlns:inkscape="http://www.inkscape.org/namespaces/inkscape"
   width="399.349"
   height="525.349"
   version="1.1"
   id="svg70"
   sodipodi:docname="exit.svg"
   inkscape:version="1.0.1 (3bc2e813f5, 2020-09-07)">
  <metadata
     id="metadata76">
    <rdf:RDF>
      <cc:Work
         rdf:about="">
        <dc:format>image/svg+xml</dc:format>
        <dc:type
           rdf:resource="http://purl.org/dc/dcmitype/StillImage" />
        <dc:title></dc:title>
      </cc:Work>
    </rdf:RDF>
  </metadata>
  <defs
     id="defs74" />
  <sodipodi:namedview
     pagecolor="#ff300b"
     bordercolor="#666666"
     borderopacity="1"
     objecttolerance="10"
     gridtolerance="10"
     guidetolerance="10"
     inkscape:pageopacity="0"
     inkscape:pageshadow="2"
     inkscape:window-width="1920"
     inkscape:window-height="1001"
     id="namedview72"
     showgrid="false"
     inkscape:pagecheckerboard="false"
     inkscape:zoom="1.5950833"
     inkscape:cx="260.1745"
     inkscape:cy="134.7892"
     inkscape:window-x="-9"
     inkscape:window-y="-9"
     inkscape:window-maximized="1"
     inkscape:current-layer="svg70" />
  <g
     id="g47">
    <title
       id="title44">background</title>
    <rect
       fill="none"
       id="canvas_background"
       height="602"
       width="802"
       y="-1"
       x="-1" />
  </g>
  <g
     id="g68"
     transform="translate(-62.065724,3.761559)">
    <title
       id="title49">Layer 1</title>
    <g
       fill="#ffffff"
       id="svg_1">
      <path
         id="svg_2"
         d="M 445.223,0 H 142.589 c -6.683,0 -12.105,5.423 -12.105,12.105 v 180.979 h 16.65 c -5.006,-6.392 -7.725,-14.224 -7.725,-22.467 -0.006,-9.764 3.8,-18.943 10.708,-25.845 1.421,-1.421 2.973,-2.687 4.583,-3.845 V 24.211 h 278.417 v 8.697 l -127.104,92.285 v 395.155 l 127.796,-92.787 c 1.626,4.77 6.095,8.228 11.414,8.228 6.685,0 12.105,-5.426 12.105,-12.105 V 12.105 C 457.328,5.417 451.907,0 445.223,0 Z m -91.192,331.973 c -5.71,0 -10.468,-7.046 -11.691,-16.485 h -13.63 v -10.592 h 13.819 c 1.448,-8.86 6.017,-15.38 11.49,-15.38 6.638,0 12.011,9.498 12.011,21.231 0.012,11.721 -5.367,21.226 -11.999,21.226 z M 150.122,314.471 c 1.424,1.412 2.967,2.678 4.572,3.824 v 105.389 c 0,6.68 -5.426,12.105 -12.105,12.105 -6.683,0 -12.105,-5.426 -12.105,-12.105 V 266.139 h 16.65 c -11.186,14.327 -10.199,35.132 2.988,48.332 z m 86.584,-96.086 c 4.817,4.817 4.817,12.608 0,17.425 l -58.995,59.001 c -2.403,2.394 -5.556,3.605 -8.709,3.611 -3.153,-0.006 -6.307,-1.206 -8.71,-3.611 -4.811,-4.817 -4.805,-12.613 0,-17.419 l 37.974,-37.977 H 75.336 c -6.803,0 -12.315,-5.512 -12.315,-12.315 0,-6.803 5.506,-12.318 12.321,-12.318 h 122.917 l -37.968,-37.974 c -4.805,-4.805 -4.811,-12.608 0,-17.413 4.812,-4.812 12.614,-4.812 17.425,0 z" />
    </g>
    <g
       id="svg_3" />
    <g
       id="svg_4" />
    <g
       id="svg_5" />
    <g
       id="svg_6" />
    <g
       id="svg_7" />
    <g
       id="svg_8" />
    <g
       id="svg_9" />
    <g
       id="svg_10" />
    <g
       id="svg_11" />
    <g
       id="svg_12" />
    <g
       id="svg_13" />
    <g
       id="svg_14" />
    <g
       id="svg_15" />
    <g
       id="svg_16" />
    <g
       id="svg_17" />
  </g>
</svg>
