<svg id="Layer_1" enable-background="new 0 0 512 512" height="512" viewBox="0 0 512 512" width="512" xmlns="http://www.w3.org/2000/svg"><g><path d="m270.749 262.715.198-143.511c.018-13.364-10.8-24.212-24.164-24.23h-.309c-13.364-.018-24.212 10.8-24.23 24.164l-.198 143.579h48.703z" fill="#ffc39c"/><path d="m246.783 94.973h-.309c-5.609-.008-10.771 1.899-14.879 5.097 5.697 4.434 9.362 11.356 9.352 19.134l-.198 143.511h30l.198-143.511c.019-13.364-10.8-24.212-24.164-24.231z" fill="#fdaa8e"/><path d="m319.296 262.715c.025-14.78.075-48.376.075-48.381l.258-79.55c.019-13.442-10.869-24.353-24.318-24.372-13.449-.019-24.366 10.869-24.385 24.318l-.177 127.986h48.547z" fill="#ffc39c"/><path d="m295.311 110.412c-5.671-.008-10.888 1.929-15.032 5.174 5.698 4.462 9.36 11.402 9.35 19.198l-.258 79.55c0 .006-.05 33.602-.075 48.381h30c.025-14.78.075-48.376.075-48.381l.258-79.55c.018-13.442-10.869-24.353-24.318-24.372z" fill="#fdaa8e"/><path d="m368.05 340.184c-.045 32.38-26.345 58.604-58.752 58.559l-86.897-.12c-27.195-.038-49.216-22.108-49.178-49.288l.325-235.45c.009-6.72 2.739-12.796 7.158-17.2 4.418-4.404 10.505-7.116 17.229-7.106 13.447.019 24.338 10.934 24.319 24.374l-.198 143.3 97.412.134c-.007-1.8.124-96.84.124-96.84.009-6.72 2.749-12.806 7.158-17.2 4.408-4.404 10.505-7.116 17.229-7.106 13.447.019 24.338 10.924 24.319 24.374z" fill="#ffc39c"/><g fill="#fdaa8e"><path d="m222.058 257.25.03.04-30.03-.04.2-143.3c.01-7.79-3.66-14.73-9.36-19.2 4.15-3.24 9.36-5.18 15.04-5.17 13.44.02 24.33 10.93 24.32 24.37z"/><path d="m343.978 136.24c-5.671-.008-10.891 1.925-15.033 5.171 5.7 4.461 9.364 11.401 9.353 19.202l-.248 179.57c-.044 31.831-25.465 57.694-57.114 58.52l28.362.039c32.407.045 58.708-26.179 58.752-58.559l.248-179.57c.018-13.449-10.873-24.354-24.32-24.373z"/></g><path d="m244.862 319.382c-13.099-17.334-33.287-26.168-53.467-25.509-6.974.228-13.645-2.858-17.844-8.437l-38.505-51.166c-9.042-12.015-26.108-14.424-38.092-5.378-11.967 9.034-14.33 26.068-5.277 38.048l42.139 55.763 36.444 48.227c30.055 39.743 56.863 31.372 92.613 27.748 0 0 4.81-9.593 0-36.277-4.811-26.684-18.011-43.019-18.011-43.019z" fill="#ffc39c"/><path d="m262.871 362.4c-4.81-26.683-18.01-43.019-18.01-43.019-13.099-17.334-33.287-26.168-53.468-25.509-6.974.228-13.645-2.858-17.844-8.438l-38.505-51.166c-9.041-12.015-26.108-14.424-38.092-5.378-2.792 2.108-5.054 4.655-6.778 7.468 5.735 1.495 11.028 4.858 14.87 9.964l38.505 51.166c4.198 5.579 10.87 8.665 17.844 8.438 20.18-.659 40.368 8.174 53.468 25.509 0 0 13.2 16.335 18.01 43.019 2.28 12.647 2.397 21.45 1.891 27.217 8.85-.602 18.131-1.982 28.109-2.994 0 0 4.81-9.593 0-36.277z" fill="#fdaa8e"/><path d="m431.716 80.284c-46.936-46.935-109.339-72.784-175.716-72.784s-128.78 25.849-175.716 72.784-72.784 109.339-72.784 175.716 25.849 128.78 72.784 175.716 109.339 72.784 175.716 72.784 128.78-25.849 175.716-72.784 72.784-109.339 72.784-175.716-25.849-128.78-72.784-175.716zm-175.716-42.784c54.854 0 105.047 20.324 143.458 53.83l-308.128 308.128c-33.506-38.411-53.83-88.604-53.83-143.458 0-120.481 98.019-218.5 218.5-218.5zm0 437c-54.854 0-105.047-20.324-143.458-53.83l308.128-308.128c33.506 38.411 53.83 88.604 53.83 143.458 0 120.481-98.019 218.5-218.5 218.5z" fill="#f75632"/><g><path d="m437.02 74.98c-48.353-48.351-112.64-74.98-181.02-74.98-35.78 0-70.322 7.181-102.667 21.343-3.795 1.661-5.523 6.084-3.862 9.878 1.661 3.795 6.086 5.522 9.878 3.862 30.436-13.326 62.955-20.083 96.651-20.083 64.373 0 124.894 25.068 170.412 70.588 45.52 45.518 70.588 106.039 70.588 170.412s-25.068 124.894-70.588 170.412c-45.518 45.52-106.039 70.588-170.412 70.588s-124.894-25.068-170.412-70.588c-45.52-45.518-70.588-106.039-70.588-170.412s25.068-124.894 70.588-170.412c13.997-13.998 29.584-26.212 46.328-36.304 3.547-2.139 4.689-6.748 2.552-10.296-2.139-3.548-6.747-4.688-10.296-2.552-17.784 10.72-34.334 23.688-49.192 38.544-48.351 48.353-74.98 112.64-74.98 181.02s26.629 132.667 74.98 181.02c48.353 48.351 112.64 74.98 181.02 74.98s132.667-26.629 181.02-74.98c48.351-48.353 74.98-112.64 74.98-181.02s-26.629-132.667-74.98-181.02z"/><path d="m416.3 393.057c-40.239 46.992-98.666 73.943-160.3 73.943-34.163 0-68.115-8.394-98.187-24.274-3.661-1.935-8.199-.532-10.134 3.13s-.533 8.199 3.13 10.134c32.221 17.016 68.596 26.01 105.191 26.01 66.024 0 128.607-28.865 171.701-79.195l.018-.021c35.003-40.893 54.281-93.022 54.281-146.784 0-54.529-19.773-107.228-55.679-148.388-1.365-1.565-3.319-2.494-5.396-2.565-2.075-.056-4.089.725-5.559 2.192l-52.354 52.354c-.014.014-.027.027-.041.041l-48.731 48.731c-.013.013-.026.026-.038.038l-.108.108c-.017.017-.034.034-.051.051l-43.443 43.443c-.013.013-.026.026-.038.038l-5.089 5.089c-.017.017-.034.034-.051.051l-41.854 41.854c-.027.026-.053.053-.08.08l-116.249 116.249c-1.469 1.47-2.263 3.482-2.192 5.559.071 2.076 1 4.03 2.565 5.396 4.875 4.253 9.995 8.348 15.22 12.172 3.342 2.443 8.035 1.719 10.482-1.623 2.446-3.343 1.719-8.036-1.623-10.482-2.725-1.993-5.419-4.066-8.06-6.2l42.43-42.43c20.355 25.775 40.333 31.678 60.769 31.678 8.48 0 17.04-1.016 25.739-2.048 3.472-.412 7.061-.835 10.699-1.208l46.019.06h.104c17.634 0 34.22-6.854 46.712-19.308 12.518-12.478 19.424-29.078 19.445-46.742l.012-8.314c.006-4.143-3.348-7.505-7.489-7.511h-.011c-4.137 0-7.494 3.352-7.5 7.489l-.012 8.315c-.017 13.657-5.356 26.491-15.035 36.14-9.66 9.63-22.486 14.931-36.124 14.931h-.081l-46.396-.061c-.264-.001-.53.011-.799.038 0 0 0 0-.001 0l-.022.002c-3.881.393-7.647.84-11.289 1.272-30.089 3.571-50.042 5.921-74.048-25.427l52.833-52.833c3.446 2.831 6.562 6.061 9.288 9.669 1.475 1.952 3.719 2.979 5.99 2.979 1.574 0 3.162-.493 4.515-1.516 3.306-2.497 3.961-7.2 1.464-10.505-3.143-4.16-6.691-7.933-10.602-11.283l34.54-34.54c.918-.587 1.697-1.366 2.284-2.284l1.918-1.918 40.31.055h.004.01.004.146.01.003l15.177.021h.01c4.138 0 7.494-3.352 7.5-7.49.006-4.142-3.348-7.504-7.49-7.51l-7.693-.01c.008-7.55.021-19.925.039-33.096l33.75-33.75-.16 116.428c-.006 4.143 3.348 7.505 7.489 7.511h.011c4.138 0 7.494-3.352 7.5-7.489l.18-131.47 44.402-44.402c30.246 37.455 46.815 84.147 46.815 132.369 0 50.196-18.003 98.868-50.693 137.049-.002.003-.004.005-.007.008zm-122.335-143.202 17.88-17.88-.025 17.905z"/><path d="m404.388 85.679c-41.16-35.906-93.859-55.679-148.388-55.679-124.617 0-226 101.383-226 226 0 54.529 19.773 107.228 55.679 148.388 1.365 1.565 3.319 2.494 5.396 2.565.085.003.17.004.255.004 1.985 0 3.895-.788 5.304-2.196l142.172-142.172c.009-.008.017-.017.026-.026l37.26-37.26c.011-.011.022-.022.033-.033l48.658-48.658.041-.041.024-.024.041-.041 33.248-33.248c.04-.039.08-.079.119-.119l46.504-46.504c1.469-1.47 2.263-3.482 2.192-5.559-.07-2.078-.999-4.032-2.564-5.397zm-92.368 82.482-33.685 33.685.094-67.109c.008-9.278 7.562-16.826 16.869-16.826 4.503.007 8.734 1.765 11.914 4.95 3.178 3.185 4.924 7.413 4.917 11.896zm-48.706 48.706-32.897 32.897-.847-.001.003-2.399.171-128.272c.022-4.441 1.761-8.612 4.906-11.748 3.151-3.144 7.335-4.874 11.795-4.874h.324c9.212.014 16.695 7.515 16.682 16.721zm-48.571-97.854c0 .039-.003.078-.003.117l-.171 130.616-12.18-.015h-.01c-4.138 0-7.495 3.352-7.5 7.49-.005 4.143 3.349 7.505 7.49 7.51l13.064.016-21.597 21.597c-.901-.005-1.802 0-2.694.03-3.912.161-7.653-1.345-10.329-4.005l.237-168.469c.007-4.497 1.766-8.729 4.941-11.905 3.186-3.17 7.411-4.915 11.902-4.915h.025c4.503.007 8.734 1.765 11.913 4.95 3.178 3.185 4.925 7.413 4.918 11.91zm-47.433 170.607.252.336c3.35 4.442 7.905 7.743 13.035 9.628l-31.238 31.238-51.694-68.404c-2.613-3.458-3.994-7.559-3.994-11.859 0-6.226 2.843-11.942 7.795-15.682 4.197-3.164 9.374-4.501 14.589-3.766 5.215.736 9.834 3.461 13.003 7.666zm183.402-160.152c-2.199-.478-4.445-.728-6.721-.728h-.048c-6.055 0-11.844 1.683-16.842 4.809-.295-8.039-3.556-15.558-9.271-21.285-6.008-6.021-14.002-9.342-22.561-9.354-6.912 0-13.313 2.222-18.539 5.98-4.275-12.43-16.073-21.399-29.95-21.42h-.348c-8.259 0-16.033 3.148-21.969 8.866-1.16-1.743-2.501-3.385-4.014-4.902-6.008-6.021-14.001-9.342-22.509-9.354h-.047c-8.485 0-16.469 3.296-22.497 9.296-6.015 6.016-9.334 14.007-9.347 22.503l-.209 148.841-24.801-32.964c-5.582-7.407-13.71-12.2-22.889-13.496-9.179-1.295-18.315 1.062-25.72 6.644-8.746 6.603-13.762 16.683-13.762 27.656 0 7.591 2.43 14.819 7.025 20.902l52.954 70.07-46.837 46.837c-30.241-37.455-46.81-84.147-46.81-132.369 0-116.346 94.654-211 211-211 48.222 0 94.914 16.569 132.368 46.813z"/></g></g></svg>